<?xml version="1.0" encoding="utf-8"?>
<?xml-stylesheet type="text/xsl" href="rss1.xsl"?>
<rss version="2.0" xmlns:atom="http://www.w3.org/2005/Atom" xmlns:content="http://purl.org/rss/1.0/modules/content/" xmlns:dc="http://purl.org/dc/elements/1.1/" xmlns:media="http://search.yahoo.com/mrss/">
<channel>
 <title>Getty</title>
 <link>http://www.gettyimg.com/</link>
 <atom:link href="http://www.gettyimg.com/" rel="self" type="application/rss+xml" />

 
                <item>
                <title><![CDATA[【Apple Music】WEB-RiP - Diego Miranda &amp; Emre Cizmeci - With U (feat. Mia Martina) (1080p)]]></title>
                <link><![CDATA[https://sharemania.us/threads/diego-miranda-emre-cizmeci-with-u-feat-mia-martina-1080p.249473/]]></link>
                <description><![CDATA[<article>
<blockquote class="messageText SelectQuoteContainer ugc baseHtml">
<img src="https://i.postimg.cc/X7Lcbqp4/Diego-Miranda-Emre-Cizmeci-With-U-feat-Mia-Martina-mp4.jpg" class="bbCodeImage LbImage" alt="[​IMG]" data-url="https://i.postimg.cc/X7Lcbqp4/Diego-Miranda-Emre-Cizmeci-With-U-feat-Mia-Martina-mp4.jpg" style=""><br>
<br>
<div class="bbCodeBlock bbCodeCode">
<div class="type">Code:</div>
<pre>General
Complete name                  : G:\Новая папка\Diego Miranda &amp; Emre Cizmeci - With U (feat. Mia Martina).mp4
Format                         : MPEG-4
Format profile                 : Base Media
Codec ID                       : isom (isom/iso2/avc1/mp41)
File size                      : 131 MiB
Duration                       : 2 min 41 s
Overall bit rate               : 6 772 kb/s
Frame rate                     : 25.000 FPS
Movie name                     : With U (feat. Mia Martina)
Performer                      : Diego Miranda &amp; Emre Cizmeci
Genre                          : Dance
ContentType                    : Music Video
Recorded date                  : 2021-08-09 07:00:00 UTC
Writing application            : Lavf56.30.100
Copyright                      : ℗ 2021 Smash The House
Conformance errors             : 1
 moov                          : Yes
  trak                         : Yes
   mdia                        : Yes
    minf                       : Yes
     0x00000000                : Yes
      General compliance       : Element size 136905006 is more than maximal permitted size 58884 (offset 0x10000)

Video
ID                             : 1
Format                         : AVC
Format/Info                    : Advanced Video Codec
Format profile                 : High@L4
Format settings                : CABAC / 4 Ref Frames
Format settings, CABAC         : Yes
Format settings, Reference fra : 4 frames
Format settings, Slice count   : 8 slices per frame
Codec ID                       : avc1
Codec ID/Info                  : Advanced Video Coding
Duration                       : 2 min 41 s
Bit rate                       : 6 499 kb/s
Width                          : 1 920 pixels
Height                         : 1 080 pixels
Display aspect ratio           : 16:9
Frame rate mode                : Constant
Frame rate                     : 25.000 FPS
Color space                    : YUV
Chroma subsampling             : 4:2:0
Bit depth                      : 8 bits
Scan type                      : Progressive
Bits/(Pixel*Frame)             : 0.125
Stream size                    : 125 MiB (96%)
Color range                    : Limited
Color primaries                : BT.709
Transfer characteristics       : BT.709
Matrix coefficients            : BT.709
Codec configuration box        : avcC

Audio
ID                             : 2
Format                         : AAC LC
Format/Info                    : Advanced Audio Codec Low Complexity
Codec ID                       : mp4a-40-2
Duration                       : 2 min 41 s
Bit rate mode                  : Constant
Bit rate                       : 265 kb/s
Channel(s)                     : 2 channels
Channel layout                 : L R
Sampling rate                  : 48.0 kHz
Frame rate                     : 46.875 FPS (1024 SPF)
Compression mode               : Lossy
Stream size                    : 5.18 MiB (4%)
Default                        : Yes
Alternate group                : 1

</pre>
</div>
<div class="bbCodeBlock bbCodeVfcHH HiddenContent">
<div class="attribution type">Hidden Content:</div>
<blockquote>You must either reply or click 'Like' to see the hidden information contained here.</blockquote>
</div>
<div class="messageTextEndMarker">&nbsp;</div>
</blockquote>
</article>]]></description>
                <author><![CDATA[vitalya3]]></author>
                </item>

                
                <item>
                <title><![CDATA[【Apple Music】WEB-RiP - Slider &amp; Magnit - Morze (1080p)]]></title>
                <link><![CDATA[https://sharemania.us/threads/slider-magnit-morze-1080p.249474/]]></link>
                <description><![CDATA[<article>
<blockquote class="messageText SelectQuoteContainer ugc baseHtml">
<img src="https://i.postimg.cc/fbtrym9x/Slider-Magnit-Morze-mp4.jpg" class="bbCodeImage LbImage" alt="[​IMG]" data-url="https://i.postimg.cc/fbtrym9x/Slider-Magnit-Morze-mp4.jpg" style=""><br>
<br>
<div class="bbCodeBlock bbCodeCode">
<div class="type">Code:</div>
<pre>General
Complete name                  : G:\Новая папка\Slider &amp; Magnit - Morze.mp4
Format                         : MPEG-4
Format profile                 : Base Media
Codec ID                       : isom (isom/iso2/avc1/mp41)
File size                      : 150 MiB
Duration                       : 3 min 7 s
Overall bit rate               : 6 723 kb/s
Frame rate                     : 25.000 FPS
Movie name                     : Morze
Album                          : Morze - Single
Album/Performer                : Slider &amp; Magnit
Part/Position                  : 1
Part/Total                     : 1
Track name/Position            : 2
Track name/Total               : 2
Performer                      : Slider &amp; Magnit
Genre                          : Dance
ContentType                    : Music Video
Recorded date                  : 2019-05-04 07:00:00 UTC
Writing application            : Lavf56.30.100
Copyright                      : ℗ 2019 Effective Records

Video
ID                             : 1
Format                         : AVC
Format/Info                    : Advanced Video Codec
Format profile                 : High@L4.1
Format settings                : CABAC / 4 Ref Frames
Format settings, CABAC         : Yes
Format settings, Reference fra : 4 frames
Format settings, Slice count   : 8 slices per frame
Codec ID                       : avc1
Codec ID/Info                  : Advanced Video Coding
Duration                       : 3 min 7 s
Bit rate                       : 6 458 kb/s
Width                          : 1 920 pixels
Height                         : 1 080 pixels
Display aspect ratio           : 16:9
Frame rate mode                : Constant
Frame rate                     : 25.000 FPS
Color space                    : YUV
Chroma subsampling             : 4:2:0
Bit depth                      : 8 bits
Scan type                      : Progressive
Bits/(Pixel*Frame)             : 0.125
Stream size                    : 144 MiB (96%)
Color range                    : Limited
Color primaries                : BT.709
Transfer characteristics       : BT.709
Matrix coefficients            : BT.709
Codec configuration box        : avcC

Audio
ID                             : 2
Format                         : AAC LC
Format/Info                    : Advanced Audio Codec Low Complexity
Codec ID                       : mp4a-40-2
Duration                       : 3 min 7 s
Duration_LastFrame             : -7 ms
Bit rate mode                  : Constant
Bit rate                       : 265 kb/s
Channel(s)                     : 2 channels
Channel layout                 : L R
Sampling rate                  : 48.0 kHz
Frame rate                     : 46.875 FPS (1024 SPF)
Compression mode               : Lossy
Stream size                    : 5.80 MiB (4%)
Default                        : Yes
Alternate group                : 1

</pre>
</div>
<div class="bbCodeBlock bbCodeVfcHH HiddenContent">
<div class="attribution type">Hidden Content:</div>
<blockquote>You must either reply or click 'Like' to see the hidden information contained here.</blockquote>
</div>
<div class="messageTextEndMarker">&nbsp;</div>
</blockquote>
</article>]]></description>
                <author><![CDATA[vitalya3]]></author>
                </item>

                
                <item>
                <title><![CDATA[【Albums (lossless)】FLAC - Alicia Keys - Songs In A Minor (Remixed &amp; Unplugged) (2002)]]></title>
                <link><![CDATA[https://sharemania.us/threads/alicia-keys-songs-in-a-minor-remixed-unplugged-2002.249477/]]></link>
                <description><![CDATA[<article>
<blockquote class="messageText SelectQuoteContainer ugc baseHtml">
<b><span style="font-size: 18px"><span style="color: #0000b3"><img src="https://i.discogs.com/SukXFtNMNntCN7C5QcPhIIMf-YlLQtXPMznO_NuKVwc/rs:fit/g:sm/q:90/h:600/w:600/czM6Ly9kaXNjb2dz/LWRhdGFiYXNlLWlt/YWdlcy9SLTEwMzYx/MDU5LTE2MDg2MzE0/MTgtMTg3OC5qcGVn.jpeg" class="bbCodeImage LbImage" alt="[​IMG]" data-url="https://i.discogs.com/SukXFtNMNntCN7C5QcPhIIMf-YlLQtXPMznO_NuKVwc/rs:fit/g:sm/q:90/h:600/w:600/czM6Ly9kaXNjb2dz/LWRhdGFiYXNlLWlt/YWdlcy9SLTEwMzYx/MDU5LTE2MDg2MzE0/MTgtMTg3OC5qcGVn.jpeg" style=""> </span></span><br>
<span style="font-size: 22px"><span style="color: #0000b3">Remixed</span></span></b><br>
<span style="color: #4d4dff"><i> Girlfriend (KrucialKeys Sista Girl Mix) 3:28 </i><br>
<i> Gangsta Lovin' 3:59 </i><br>
<i> Fallin' (Remix) 3:56 </i><br>
<i> A Woman's Worth (Remix) 3:20 </i><br>
<i> Butterflyz (Roger's Release Mix) 3:54 </i><br>
<i> Troubles (J-Jay &amp; Chris Lum Bootleg Mix) 4:23 </i><br>
<i> How Come You Don't Call Me (Neptunes Remix) 4:23 </i><br>
<i> Fallin' (Ali Version) 4:30 </i></span><br>
<b><span style="font-size: 22px"><span style="color: #4d4dff"> Unplugged </span></span></b><br>
<span style="font-size: 15px"><span style="color: #99ccff"><i> Moonlight Sonata/L'Interludio, Ambivalente/Ain't Misbehavin' 2:22 </i><br>
<i> Goodbye 2:49 </i><br>
<i> Never Felt This Way 1:45 </i><br>
<i> Butterflyz 0:52 </i><br>
<i> Caged Bird 2:02 </i><br>
<i> I Got A Little Something For You 1:45 </i><br>
<i> Someday We'll All Be Free 6:24 </i></span><br>
<i>
<div class="bbCodeBlock bbCodeVfcHH HiddenContent">
<div class="attribution type">Hidden Content:</div>
<blockquote>You must reply before you can see the hidden data contained here.</blockquote>
</div></i></span>
<div class="messageTextEndMarker">&nbsp;</div>
</blockquote>
</article>]]></description>
                <author><![CDATA[rominuchiis]]></author>
                </item>

                
                <item>
                <title><![CDATA[【Apple Music】WEB-RiP - VIZE - Stars (feat. Laniia) (1080p)]]></title>
                <link><![CDATA[https://sharemania.us/threads/vize-stars-feat-laniia-1080p.249472/]]></link>
                <description><![CDATA[<article>
<blockquote class="messageText SelectQuoteContainer ugc baseHtml">
<img src="https://i.postimg.cc/HxdfVj43/VIZE-Stars-feat-Laniia-mp4.jpg" class="bbCodeImage LbImage" alt="[​IMG]" data-url="https://i.postimg.cc/HxdfVj43/VIZE-Stars-feat-Laniia-mp4.jpg" style=""><br>
<br>
<div class="bbCodeBlock bbCodeCode">
<div class="type">Code:</div>
<pre>General
Complete name                  : G:\Новая папка\VIZE - Stars (feat. Laniia).mp4
Format                         : MPEG-4
Format profile                 : Base Media
Codec ID                       : isom (isom/iso2/avc1/mp41)
File size                      : 203 MiB
Duration                       : 2 min 51 s
Overall bit rate               : 9 964 kb/s
Frame rate                     : 25.000 FPS
Movie name                     : Stars (feat. Laniia)
Performer                      : VIZE
Genre                          : Dance
ContentType                    : Music Video
Recorded date                  : 2019-05-06 07:00:00 UTC
Writing application            : Lavf56.30.100
Copyright                      : ℗ 2019 Heaven Shall Dance / Kontor Records GmbH

Video
ID                             : 1
Format                         : AVC
Format/Info                    : Advanced Video Codec
Format profile                 : High@L4.1
Format settings                : CABAC / 4 Ref Frames
Format settings, CABAC         : Yes
Format settings, Reference fra : 4 frames
Format settings, Slice count   : 8 slices per frame
Codec ID                       : avc1
Codec ID/Info                  : Advanced Video Coding
Duration                       : 2 min 51 s
Bit rate                       : 9 717 kb/s
Width                          : 1 920 pixels
Height                         : 908 pixels
Display aspect ratio           : 2.115
Frame rate mode                : Constant
Frame rate                     : 25.000 FPS
Color space                    : YUV
Chroma subsampling             : 4:2:0
Bit depth                      : 8 bits
Scan type                      : Progressive
Bits/(Pixel*Frame)             : 0.223
Stream size                    : 198 MiB (97%)
Color range                    : Limited
Color primaries                : BT.709
Transfer characteristics       : BT.709
Matrix coefficients            : BT.709
Codec configuration box        : avcC

Audio
ID                             : 2
Format                         : AAC LC
Format/Info                    : Advanced Audio Codec Low Complexity
Codec ID                       : mp4a-40-2
Duration                       : 2 min 51 s
Duration_LastFrame             : -1 ms
Bit rate mode                  : Constant
Bit rate                       : 244 kb/s
Channel(s)                     : 2 channels
Channel layout                 : L R
Sampling rate                  : 48.0 kHz
Frame rate                     : 46.875 FPS (1024 SPF)
Compression mode               : Lossy
Stream size                    : 4.97 MiB (2%)
Default                        : Yes
Alternate group                : 1

</pre>
</div>
<div class="bbCodeBlock bbCodeVfcHH HiddenContent">
<div class="attribution type">Hidden Content:</div>
<blockquote>You must either reply or click 'Like' to see the hidden information contained here.</blockquote>
</div>
<div class="messageTextEndMarker">&nbsp;</div>
</blockquote>
</article>]]></description>
                <author><![CDATA[vitalya3]]></author>
                </item>

                
                <item>
                <title><![CDATA[【Apple Music】WEB-RiP - Rico Bernasconi &amp; Tuklan - Ebony Eyes (feat. A-Class &amp; Sean Paul) (1080p)]]></title>
                <link><![CDATA[https://sharemania.us/threads/rico-bernasconi-tuklan-ebony-eyes-feat-a-class-sean-paul-1080p.249475/]]></link>
                <description><![CDATA[<article>
<blockquote class="messageText SelectQuoteContainer ugc baseHtml">
<img src="https://i.postimg.cc/vmnwjp3F/Rico-Bernasconi-Tuklan-Ebony-Eyes-feat-A-Class-Sean-Paul-mp4.jpg" class="bbCodeImage LbImage" alt="[​IMG]" data-url="https://i.postimg.cc/vmnwjp3F/Rico-Bernasconi-Tuklan-Ebony-Eyes-feat-A-Class-Sean-Paul-mp4.jpg" style=""><br>
<br>
<div class="bbCodeBlock bbCodeCode">
<div class="type">Code:</div>
<pre>General
Complete name                  : G:\Новая папка\Rico Bernasconi &amp; Tuklan - Ebony Eyes (feat. A-Class &amp; Sean Paul).mp4
Format                         : MPEG-4
Format profile                 : Base Media
Codec ID                       : isom (isom/iso2/avc1/mp41)
File size                      : 163 MiB
Duration                       : 3 min 18 s
Overall bit rate               : 6 904 kb/s
Frame rate                     : 25.000 FPS
Movie name                     : Ebony Eyes (feat. A-Class &amp; Sean Paul)
Performer                      : Rico Bernasconi &amp; Tuklan
Genre                          : Dance
ContentType                    : Music Video
Recorded date                  : 2015-07-30 07:00:00 UTC
Writing application            : Lavf56.30.100
Copyright                      : ℗ 2015 Hooky Recordings under exclusive license to Kontor Records GmbH

Video
ID                             : 1
Format                         : AVC
Format/Info                    : Advanced Video Codec
Format profile                 : High@L4
Format settings                : CABAC / 5 Ref Frames
Format settings, CABAC         : Yes
Format settings, Reference fra : 5 frames
Format settings, GOP           : N=1
Format settings, Slice count   : 8 slices per frame
Codec ID                       : avc1
Codec ID/Info                  : Advanced Video Coding
Duration                       : 3 min 18 s
Bit rate                       : 6 643 kb/s
Width                          : 1 918 pixels
Height                         : 836 pixels
Display aspect ratio           : 2.25:1
Frame rate mode                : Constant
Frame rate                     : 25.000 FPS
Color space                    : YUV
Chroma subsampling             : 4:2:0
Bit depth                      : 8 bits
Scan type                      : Progressive
Bits/(Pixel*Frame)             : 0.166
Stream size                    : 157 MiB (96%)
Color range                    : Limited
Color primaries                : BT.709
Transfer characteristics       : BT.709
Matrix coefficients            : BT.709
Codec configuration box        : avcC

Audio
ID                             : 2
Format                         : AAC LC
Format/Info                    : Advanced Audio Codec Low Complexity
Codec ID                       : mp4a-40-2
Duration                       : 3 min 18 s
Duration_LastFrame             : -15 ms
Bit rate mode                  : Constant
Bit rate                       : 257 kb/s
Channel(s)                     : 2 channels
Channel layout                 : L R
Sampling rate                  : 48.0 kHz
Frame rate                     : 46.875 FPS (1024 SPF)
Compression mode               : Lossy
Stream size                    : 6.07 MiB (4%)
Default                        : Yes
Alternate group                : 1

</pre>
</div>
<div class="bbCodeBlock bbCodeVfcHH HiddenContent">
<div class="attribution type">Hidden Content:</div>
<blockquote>You must either reply or click 'Like' to see the hidden information contained here.</blockquote>
</div>
<div class="messageTextEndMarker">&nbsp;</div>
</blockquote>
</article>]]></description>
                <author><![CDATA[vitalya3]]></author>
                </item>

                
                <item>
                <title><![CDATA[【Singles (lossless)】FLAC - Mariah Carey - A No No (No Rap/Clean Version)]]></title>
                <link><![CDATA[https://sharemania.us/threads/mariah-carey-a-no-no-no-rap-clean-version.249476/]]></link>
                <description><![CDATA[<article>
<blockquote class="messageText SelectQuoteContainer ugc baseHtml">
<div style="text-align: center"><span style="font-size: 26px"><span style="color: #ff0000"><b>&gt;&gt;&gt;JUST CLICK LIKE&lt;&lt;&lt;</b><br>
</span><br>
I removed rap verses in the bridge part. Enjoy!</span>​</div><br>
<div class="bbCodeBlock bbCodeVfcHH HiddenContent">
<div class="attribution type">Hidden Content:</div>
<blockquote>You must either reply or click 'Like' to see the hidden information contained here.</blockquote>
</div>
<div class="messageTextEndMarker">&nbsp;</div>
</blockquote>
</article>]]></description>
                <author><![CDATA[diamondphoenix]]></author>
                </item>

                </channel></rss>